<svg xmlns="http://www.w3.org/2000/svg" viewBox="0 0 1440 320" preserveAspectRatio="none">
    <path fill="#0068bf" fill-opacity="1"
        d="M0,96L34.3,96C68.6,96,137,96,206,106.7C274.3,117,343,139,411,122.7C480,107,549,53,617,53.3C685.7,53,754,107,823,128C891.4,149,960,139,1029,112C1097.1,85,1166,43,1234,26.7C1302.9,11,1371,21,1406,26.7L1440,32L1440,320L1405.7,320C1371.4,320,1303,320,1234,320C1165.7,320,1097,320,1029,320C960,320,891,320,823,320C754.3,320,686,320,617,320C548.6,320,480,320,411,320C342.9,320,274,320,206,320C137.1,320,69,320,34,320L0,320Z"></path>
</svg>